<svg width="176" height="9" viewBox="0 0 176 9" fill="none" xmlns="http://www.w3.org/2000/svg">
<path d="M5.23145 4.78809H6.01562C6.01562 5.35026 5.85449 5.77279 5.53223 6.05566C5.21354 6.33496 4.78027 6.47461 4.23242 6.47461C3.85286 6.47461 3.52344 6.38688 3.24414 6.21143C2.96842 6.03597 2.75358 5.79248 2.59961 5.48096C2.44922 5.16943 2.37402 4.80778 2.37402 4.396V3.77832C2.37402 3.36654 2.44922 3.00488 2.59961 2.69336C2.75358 2.38184 2.96842 2.13835 3.24414 1.96289C3.52344 1.78743 3.85286 1.69971 4.23242 1.69971C4.78027 1.69971 5.21533 1.83936 5.5376 2.11865C5.85986 2.39795 6.021 2.81868 6.021 3.38086H5.23682C5.23682 3.02637 5.15088 2.77214 4.979 2.61816C4.81071 2.46419 4.56185 2.38721 4.23242 2.38721C3.99609 2.38721 3.79736 2.44629 3.63623 2.56445C3.4751 2.68262 3.35335 2.84733 3.271 3.05859C3.18864 3.26628 3.14746 3.50439 3.14746 3.77295V4.396C3.14746 4.66813 3.18864 4.90983 3.271 5.12109C3.35335 5.32878 3.4751 5.4917 3.63623 5.60986C3.79736 5.72803 3.99609 5.78711 4.23242 5.78711C4.56185 5.78711 4.81071 5.71012 4.979 5.55615C5.1473 5.40218 5.23145 5.14616 5.23145 4.78809ZM1.11182 4.08447C1.11182 4.56071 1.19417 5.00472 1.35889 5.4165C1.5236 5.82829 1.75277 6.18815 2.04639 6.49609C2.34001 6.80404 2.68018 7.04395 3.06689 7.21582C3.45361 7.3877 3.86719 7.47363 4.30762 7.47363C4.74805 7.47363 5.15983 7.3877 5.54297 7.21582C5.92969 7.04395 6.26807 6.80404 6.55811 6.49609C6.85173 6.18815 7.08089 5.82829 7.24561 5.4165C7.41032 5.00472 7.49268 4.56071 7.49268 4.08447C7.49268 3.60465 7.41032 3.16064 7.24561 2.75244C7.08089 2.34424 6.85173 1.98796 6.55811 1.68359C6.26807 1.37565 5.92969 1.13753 5.54297 0.969238C5.15983 0.797363 4.74805 0.711426 4.30762 0.711426C3.86719 0.711426 3.45361 0.797363 3.06689 0.969238C2.68018 1.13753 2.34001 1.37565 2.04639 1.68359C1.75277 1.98796 1.5236 2.34424 1.35889 2.75244C1.19417 3.16064 1.11182 3.60465 1.11182 4.08447ZM0.494141 4.08447C0.494141 3.51514 0.592611 2.98698 0.789551 2.5C0.986491 2.01302 1.26042 1.5887 1.61133 1.22705C1.96224 0.861816 2.36686 0.578939 2.8252 0.378418C3.28711 0.174316 3.78125 0.0722656 4.30762 0.0722656C4.83398 0.0722656 5.32633 0.174316 5.78467 0.378418C6.24658 0.578939 6.6512 0.861816 6.99854 1.22705C7.34945 1.5887 7.62337 2.01302 7.82031 2.5C8.01725 2.98698 8.11572 3.51514 8.11572 4.08447C8.11572 4.65381 8.01725 5.18197 7.82031 5.66895C7.62337 6.15592 7.34945 6.58382 6.99854 6.95264C6.6512 7.31787 6.24658 7.60254 5.78467 7.80664C5.32633 8.01074 4.83398 8.11279 4.30762 8.11279C3.78125 8.11279 3.28711 8.01074 2.8252 7.80664C2.36686 7.60254 1.96224 7.31787 1.61133 6.95264C1.26042 6.58382 0.986491 6.15592 0.789551 5.66895C0.592611 5.18197 0.494141 4.65381 0.494141 4.08447ZM17.1499 7.18359V8H12.0312V7.28564L14.5933 4.43359C14.9084 4.08268 15.1519 3.78548 15.3237 3.54199C15.4992 3.29492 15.6209 3.07471 15.689 2.88135C15.7606 2.68441 15.7964 2.48389 15.7964 2.27979C15.7964 2.02197 15.7427 1.78923 15.6353 1.58154C15.5314 1.37028 15.3774 1.20199 15.1733 1.07666C14.9692 0.951335 14.7222 0.888672 14.4321 0.888672C14.0848 0.888672 13.7948 0.956706 13.562 1.09277C13.3328 1.22526 13.161 1.41146 13.0464 1.65137C12.9318 1.89128 12.8745 2.16699 12.8745 2.47852H11.8809C11.8809 2.03809 11.9775 1.63525 12.1709 1.27002C12.3643 0.904785 12.6507 0.614746 13.0303 0.399902C13.4098 0.181478 13.8771 0.0722656 14.4321 0.0722656C14.9263 0.0722656 15.3488 0.159993 15.6997 0.335449C16.0506 0.507324 16.3192 0.750814 16.5054 1.06592C16.6951 1.37744 16.79 1.74268 16.79 2.16162C16.79 2.39079 16.7507 2.62354 16.6719 2.85986C16.5967 3.09261 16.491 3.32536 16.355 3.55811C16.2225 3.79085 16.0667 4.02002 15.8877 4.24561C15.7122 4.47119 15.5243 4.6932 15.3237 4.91162L13.229 7.18359H17.1499ZM23.1226 3.4668V4.65918C23.1226 5.30013 23.0653 5.84082 22.9507 6.28125C22.8361 6.72168 22.6714 7.07617 22.4565 7.34473C22.2417 7.61328 21.9821 7.80843 21.6777 7.93018C21.377 8.04834 21.0368 8.10742 20.6572 8.10742C20.3564 8.10742 20.0789 8.06982 19.8247 7.99463C19.5705 7.91943 19.3413 7.79948 19.1372 7.63477C18.9367 7.46647 18.7648 7.24805 18.6216 6.97949C18.4784 6.71094 18.3691 6.38509 18.2939 6.00195C18.2188 5.61882 18.1812 5.17122 18.1812 4.65918V3.4668C18.1812 2.82585 18.2384 2.28874 18.353 1.85547C18.4712 1.4222 18.6377 1.07487 18.8525 0.813477C19.0674 0.548503 19.3252 0.358724 19.626 0.244141C19.9303 0.129557 20.2705 0.0722656 20.6465 0.0722656C20.9508 0.0722656 21.2301 0.109863 21.4844 0.185059C21.7422 0.256673 21.9714 0.373047 22.1719 0.53418C22.3724 0.691732 22.5425 0.902995 22.6821 1.16797C22.8254 1.42936 22.9346 1.74984 23.0098 2.12939C23.085 2.50895 23.1226 2.95475 23.1226 3.4668ZM22.1235 4.82031V3.30029C22.1235 2.94938 22.1021 2.64144 22.0591 2.37646C22.0197 2.10791 21.9606 1.87874 21.8818 1.68896C21.8031 1.49919 21.7028 1.34521 21.5811 1.22705C21.4629 1.10889 21.325 1.02295 21.1675 0.969238C21.0135 0.911947 20.8398 0.883301 20.6465 0.883301C20.4102 0.883301 20.2007 0.92806 20.0181 1.01758C19.8354 1.10352 19.6815 1.24137 19.5562 1.43115C19.4344 1.62093 19.3413 1.86979 19.2769 2.17773C19.2124 2.48568 19.1802 2.85986 19.1802 3.30029V4.82031C19.1802 5.17122 19.1999 5.48096 19.2393 5.74951C19.2822 6.01807 19.3449 6.25081 19.4272 6.44775C19.5096 6.64111 19.6099 6.80046 19.728 6.92578C19.8462 7.05111 19.9823 7.14421 20.1362 7.20508C20.2938 7.26237 20.4674 7.29102 20.6572 7.29102C20.9007 7.29102 21.1138 7.24447 21.2964 7.15137C21.479 7.05827 21.6312 6.91325 21.7529 6.71631C21.8783 6.51579 21.9714 6.25977 22.0322 5.94824C22.0931 5.63314 22.1235 5.25716 22.1235 4.82031ZM29.5249 7.18359V8H24.4062V7.28564L26.9683 4.43359C27.2834 4.08268 27.5269 3.78548 27.6987 3.54199C27.8742 3.29492 27.9959 3.07471 28.064 2.88135C28.1356 2.68441 28.1714 2.48389 28.1714 2.27979C28.1714 2.02197 28.1177 1.78923 28.0103 1.58154C27.9064 1.37028 27.7524 1.20199 27.5483 1.07666C27.3442 0.951335 27.0972 0.888672 26.8071 0.888672C26.4598 0.888672 26.1698 0.956706 25.937 1.09277C25.7078 1.22526 25.536 1.41146 25.4214 1.65137C25.3068 1.89128 25.2495 2.16699 25.2495 2.47852H24.2559C24.2559 2.03809 24.3525 1.63525 24.5459 1.27002C24.7393 0.904785 25.0257 0.614746 25.4053 0.399902C25.7848 0.181478 26.2521 0.0722656 26.8071 0.0722656C27.3013 0.0722656 27.7238 0.159993 28.0747 0.335449C28.4256 0.507324 28.6942 0.750814 28.8804 1.06592C29.0701 1.37744 29.165 1.74268 29.165 2.16162C29.165 2.39079 29.1257 2.62354 29.0469 2.85986C28.9717 3.09261 28.866 3.32536 28.73 3.55811C28.5975 3.79085 28.4417 4.02002 28.2627 4.24561C28.0872 4.47119 27.8993 4.6932 27.6987 4.91162L25.604 7.18359H29.5249ZM33.854 0.136719V8H32.8604V1.37744L30.8569 2.10791V1.21094L33.6982 0.136719H33.854ZM40.874 0.179688V8H39.8374V0.179688H40.874ZM48.7749 0.179688V8H47.7329L43.7959 1.96826V8H42.7593V0.179688H43.7959L47.749 6.22754V0.179688H48.7749ZM54.7798 6.02344C54.7798 5.84082 54.7511 5.67969 54.6938 5.54004C54.6401 5.39681 54.5435 5.2679 54.4038 5.15332C54.2677 5.03874 54.078 4.92952 53.8345 4.82568C53.5946 4.72184 53.2902 4.61621 52.9214 4.50879C52.5347 4.39421 52.1855 4.26709 51.874 4.12744C51.5625 3.98421 51.2957 3.82129 51.0737 3.63867C50.8517 3.45605 50.6816 3.24658 50.5635 3.01025C50.4453 2.77393 50.3862 2.50358 50.3862 2.19922C50.3862 1.89486 50.4489 1.61377 50.5742 1.35596C50.6995 1.09814 50.8786 0.874349 51.1113 0.68457C51.3477 0.491211 51.6287 0.34082 51.9546 0.233398C52.2804 0.125977 52.6439 0.0722656 53.0449 0.0722656C53.6322 0.0722656 54.1299 0.185059 54.5381 0.410645C54.9499 0.63265 55.2632 0.924479 55.478 1.28613C55.6929 1.64421 55.8003 2.02734 55.8003 2.43555H54.769C54.769 2.14193 54.7064 1.88232 54.5811 1.65674C54.4557 1.42757 54.266 1.24854 54.0117 1.11963C53.7575 0.987142 53.4352 0.920898 53.0449 0.920898C52.6761 0.920898 52.3717 0.9764 52.1318 1.0874C51.8919 1.1984 51.7129 1.3488 51.5947 1.53857C51.4801 1.72835 51.4229 1.94499 51.4229 2.18848C51.4229 2.35319 51.4569 2.50358 51.5249 2.63965C51.5965 2.77214 51.7057 2.89567 51.8525 3.01025C52.0029 3.12484 52.1927 3.23047 52.4219 3.32715C52.6546 3.42383 52.9321 3.51693 53.2544 3.60645C53.6984 3.73177 54.0815 3.87142 54.4038 4.02539C54.7261 4.17936 54.991 4.35303 55.1987 4.54639C55.41 4.73617 55.5658 4.9528 55.666 5.19629C55.7699 5.4362 55.8218 5.70833 55.8218 6.0127C55.8218 6.33138 55.7573 6.61963 55.6284 6.87744C55.4995 7.13525 55.3151 7.35547 55.0752 7.53809C54.8353 7.7207 54.547 7.86214 54.2104 7.9624C53.8774 8.05908 53.505 8.10742 53.0933 8.10742C52.7316 8.10742 52.3753 8.05729 52.0244 7.95703C51.6771 7.85677 51.3602 7.70638 51.0737 7.50586C50.7909 7.30534 50.5635 7.05827 50.3916 6.76465C50.2233 6.46745 50.1392 6.1237 50.1392 5.7334H51.1704C51.1704 6.00195 51.2223 6.23291 51.3262 6.42627C51.43 6.61605 51.5715 6.7736 51.7505 6.89893C51.9331 7.02425 52.139 7.11735 52.3682 7.17822C52.6009 7.23551 52.8426 7.26416 53.0933 7.26416C53.4549 7.26416 53.7611 7.21403 54.0117 7.11377C54.2624 7.01351 54.4521 6.87028 54.5811 6.68408C54.7135 6.49788 54.7798 6.27767 54.7798 6.02344ZM60.0327 0.179688V8H59.0122V0.179688H60.0327ZM62.5464 0.179688V1.02832H56.5039V0.179688H62.5464ZM66.1719 0.872559L63.583 8H62.5249L65.5059 0.179688H66.188L66.1719 0.872559ZM68.3418 8L65.7476 0.872559L65.7314 0.179688H66.4136L69.4053 8H68.3418ZM68.2075 5.10498V5.95361H63.814V5.10498H68.2075ZM76.1675 4.10596V6.96875C76.0708 7.11198 75.9168 7.27311 75.7056 7.45215C75.4943 7.6276 75.2025 7.78158 74.8301 7.91406C74.4613 8.04297 73.985 8.10742 73.4014 8.10742C72.9251 8.10742 72.4865 8.02507 72.0854 7.86035C71.688 7.69206 71.3424 7.44857 71.0488 7.12988C70.7588 6.80762 70.5332 6.41732 70.3721 5.95898C70.2145 5.49707 70.1357 4.97428 70.1357 4.39062V3.78369C70.1357 3.20003 70.2038 2.67904 70.3398 2.2207C70.4795 1.76237 70.6836 1.37386 70.9521 1.05518C71.2207 0.73291 71.5501 0.489421 71.9404 0.324707C72.3307 0.156413 72.7783 0.0722656 73.2832 0.0722656C73.8812 0.0722656 74.3807 0.176107 74.7817 0.383789C75.1864 0.587891 75.5015 0.870768 75.7271 1.23242C75.9562 1.59408 76.103 2.00586 76.1675 2.46777H75.1309C75.0843 2.1849 74.9912 1.92708 74.8516 1.69434C74.7155 1.46159 74.5203 1.27539 74.2661 1.13574C74.0119 0.992513 73.6842 0.920898 73.2832 0.920898C72.9215 0.920898 72.6082 0.987142 72.3433 1.11963C72.0783 1.25212 71.8599 1.44189 71.688 1.68896C71.5161 1.93604 71.3872 2.23503 71.3013 2.58594C71.2189 2.93685 71.1777 3.33252 71.1777 3.77295V4.39062C71.1777 4.8418 71.2297 5.24463 71.3335 5.59912C71.4409 5.95361 71.5931 6.25618 71.79 6.50684C71.987 6.75391 72.2215 6.94189 72.4937 7.0708C72.7694 7.19971 73.0737 7.26416 73.4067 7.26416C73.7756 7.26416 74.0745 7.23372 74.3037 7.17285C74.5329 7.1084 74.7119 7.0332 74.8408 6.94727C74.9697 6.85775 75.0682 6.7736 75.1362 6.69482V4.94385H73.3262V4.10596H76.1675ZM77.8862 0.179688H80.4751C81.0623 0.179688 81.5583 0.269206 81.9629 0.448242C82.3711 0.627279 82.6808 0.892253 82.8921 1.24316C83.1069 1.59049 83.2144 2.01839 83.2144 2.52686C83.2144 2.88493 83.141 3.21257 82.9941 3.50977C82.8509 3.80339 82.6432 4.05404 82.3711 4.26172C82.1025 4.46582 81.7803 4.618 81.4043 4.71826L81.1143 4.83105H78.6812L78.6704 3.98779H80.5073C80.8797 3.98779 81.1895 3.92334 81.4365 3.79443C81.6836 3.66195 81.8698 3.4847 81.9951 3.2627C82.1204 3.04069 82.1831 2.79541 82.1831 2.52686C82.1831 2.22607 82.124 1.96289 82.0059 1.7373C81.8877 1.51172 81.7015 1.33805 81.4473 1.21631C81.1966 1.09098 80.8726 1.02832 80.4751 1.02832H78.9229V8H77.8862V0.179688ZM82.457 8L80.5557 4.45508L81.6353 4.44971L83.5635 7.93555V8H82.457ZM87.5596 0.872559L84.9707 8H83.9126L86.8936 0.179688H87.5757L87.5596 0.872559ZM89.7295 8L87.1353 0.872559L87.1191 0.179688H87.8013L90.793 8H89.7295ZM89.5952 5.10498V5.95361H85.2017V5.10498H89.5952ZM92.168 0.179688H93.1724L95.7344 6.55518L98.291 0.179688H99.3008L96.1211 8H95.3369L92.168 0.179688ZM91.8403 0.179688H92.7266L92.8716 4.94922V8H91.8403V0.179688ZM98.7368 0.179688H99.623V8H98.5918V4.94922L98.7368 0.179688ZM106.289 8H104.656L104.667 7.15674H106.289C106.847 7.15674 107.313 7.04036 107.685 6.80762C108.057 6.57129 108.337 6.24186 108.523 5.81934C108.713 5.39323 108.808 4.89551 108.808 4.32617V3.84814C108.808 3.40055 108.754 3.00309 108.646 2.65576C108.539 2.30485 108.382 2.00944 108.174 1.76953C107.966 1.52604 107.712 1.34163 107.411 1.21631C107.114 1.09098 106.772 1.02832 106.385 1.02832H104.624V0.179688H106.385C106.897 0.179688 107.365 0.265625 107.787 0.4375C108.21 0.605794 108.573 0.851074 108.877 1.17334C109.185 1.49202 109.422 1.87874 109.586 2.3335C109.751 2.78467 109.833 3.29313 109.833 3.85889V4.32617C109.833 4.89193 109.751 5.40218 109.586 5.85693C109.422 6.30811 109.184 6.69303 108.872 7.01172C108.564 7.3304 108.192 7.57568 107.755 7.74756C107.322 7.91585 106.833 8 106.289 8ZM105.209 0.179688V8H104.172V0.179688H105.209ZM117.412 3.84277V4.33691C117.412 4.92415 117.339 5.45052 117.192 5.91602C117.045 6.38151 116.834 6.77718 116.558 7.10303C116.282 7.42887 115.951 7.67773 115.564 7.84961C115.181 8.02148 114.752 8.10742 114.275 8.10742C113.813 8.10742 113.389 8.02148 113.002 7.84961C112.619 7.67773 112.286 7.42887 112.003 7.10303C111.724 6.77718 111.507 6.38151 111.354 5.91602C111.2 5.45052 111.123 4.92415 111.123 4.33691V3.84277C111.123 3.25553 111.198 2.73096 111.348 2.26904C111.502 1.80355 111.719 1.40788 111.998 1.08203C112.277 0.752604 112.609 0.501953 112.992 0.330078C113.378 0.158203 113.803 0.0722656 114.265 0.0722656C114.741 0.0722656 115.171 0.158203 115.554 0.330078C115.94 0.501953 116.272 0.752604 116.547 1.08203C116.827 1.40788 117.04 1.80355 117.187 2.26904C117.337 2.73096 117.412 3.25553 117.412 3.84277ZM116.386 4.33691V3.83203C116.386 3.36654 116.338 2.95475 116.241 2.59668C116.148 2.23861 116.01 1.93783 115.828 1.69434C115.645 1.45085 115.421 1.26644 115.156 1.14111C114.895 1.01579 114.598 0.953125 114.265 0.953125C113.942 0.953125 113.651 1.01579 113.389 1.14111C113.131 1.26644 112.909 1.45085 112.723 1.69434C112.541 1.93783 112.399 2.23861 112.299 2.59668C112.199 2.95475 112.148 3.36654 112.148 3.83203V4.33691C112.148 4.80599 112.199 5.22135 112.299 5.58301C112.399 5.94108 112.542 6.24365 112.729 6.49072C112.918 6.73421 113.142 6.91862 113.4 7.04395C113.661 7.16927 113.953 7.23193 114.275 7.23193C114.612 7.23193 114.911 7.16927 115.172 7.04395C115.434 6.91862 115.654 6.73421 115.833 6.49072C116.016 6.24365 116.153 5.94108 116.247 5.58301C116.34 5.22135 116.386 4.80599 116.386 4.33691ZM122.729 0.179688V8H121.693V0.179688H122.729ZM126.006 3.69775V4.54639H122.504V3.69775H126.006ZM126.538 0.179688V1.02832H122.504V0.179688H126.538ZM129.755 0.872559L127.166 8H126.108L129.089 0.179688H129.771L129.755 0.872559ZM131.925 8L129.331 0.872559L129.314 0.179688H129.997L132.988 8H131.925ZM131.791 5.10498V5.95361H127.397V5.10498H131.791ZM138.692 5.51318H139.724C139.67 6.00732 139.528 6.44954 139.299 6.83984C139.07 7.23014 138.746 7.53988 138.327 7.76904C137.908 7.99463 137.385 8.10742 136.759 8.10742C136.3 8.10742 135.883 8.02148 135.507 7.84961C135.135 7.67773 134.814 7.43424 134.546 7.11914C134.277 6.80046 134.07 6.41911 133.923 5.9751C133.78 5.52751 133.708 5.02979 133.708 4.48193V3.70312C133.708 3.15527 133.78 2.65934 133.923 2.21533C134.07 1.76774 134.279 1.3846 134.551 1.06592C134.827 0.747233 135.158 0.501953 135.545 0.330078C135.932 0.158203 136.367 0.0722656 136.85 0.0722656C137.441 0.0722656 137.94 0.183268 138.349 0.405273C138.757 0.627279 139.074 0.935221 139.299 1.3291C139.528 1.7194 139.67 2.17236 139.724 2.68799H138.692C138.642 2.32275 138.549 2.00944 138.413 1.74805C138.277 1.48307 138.084 1.27897 137.833 1.13574C137.582 0.992513 137.255 0.920898 136.85 0.920898C136.503 0.920898 136.197 0.987142 135.932 1.11963C135.67 1.25212 135.45 1.4401 135.271 1.68359C135.096 1.92708 134.963 2.21891 134.874 2.55908C134.784 2.89925 134.739 3.27702 134.739 3.69238V4.48193C134.739 4.86507 134.779 5.22493 134.857 5.56152C134.94 5.89811 135.063 6.19352 135.228 6.44775C135.393 6.70199 135.602 6.90251 135.856 7.04932C136.111 7.19255 136.411 7.26416 136.759 7.26416C137.199 7.26416 137.55 7.19434 137.812 7.05469C138.073 6.91504 138.27 6.71452 138.402 6.45312C138.538 6.19173 138.635 5.87842 138.692 5.51318ZM146.104 7.15674V8H141.963V7.15674H146.104ZM142.173 0.179688V8H141.136V0.179688H142.173ZM145.557 3.54199V4.38525H141.963V3.54199H145.557ZM146.051 0.179688V1.02832H141.963V0.179688H146.051ZM150.176 4.34229H148.194L148.183 3.50977H149.982C150.28 3.50977 150.539 3.45964 150.761 3.35938C150.983 3.25911 151.155 3.11589 151.277 2.92969C151.402 2.73991 151.465 2.51432 151.465 2.25293C151.465 1.96647 151.409 1.73372 151.298 1.55469C151.191 1.37207 151.024 1.23958 150.799 1.15723C150.577 1.07129 150.294 1.02832 149.95 1.02832H148.425V8H147.388V0.179688H149.95C150.351 0.179688 150.709 0.220866 151.024 0.303223C151.34 0.381999 151.606 0.507324 151.825 0.679199C152.047 0.847493 152.215 1.06234 152.33 1.32373C152.444 1.58512 152.501 1.89844 152.501 2.26367C152.501 2.58594 152.419 2.87777 152.254 3.13916C152.09 3.39697 151.861 3.60824 151.567 3.77295C151.277 3.93766 150.937 4.04329 150.546 4.08984L150.176 4.34229ZM150.127 8H147.786L148.371 7.15674H150.127C150.457 7.15674 150.736 7.09945 150.965 6.98486C151.198 6.87028 151.375 6.70915 151.497 6.50146C151.619 6.2902 151.68 6.04134 151.68 5.75488C151.68 5.46484 151.628 5.21419 151.524 5.00293C151.42 4.79167 151.257 4.62874 151.035 4.51416C150.813 4.39958 150.527 4.34229 150.176 4.34229H148.699L148.709 3.50977H150.729L150.949 3.81055C151.325 3.84277 151.644 3.9502 151.905 4.13281C152.167 4.31185 152.365 4.54102 152.501 4.82031C152.641 5.09961 152.711 5.40755 152.711 5.74414C152.711 6.23112 152.604 6.6429 152.389 6.97949C152.177 7.3125 151.878 7.56673 151.492 7.74219C151.105 7.91406 150.65 8 150.127 8ZM160.263 3.84277V4.33691C160.263 4.92415 160.189 5.45052 160.042 5.91602C159.896 6.38151 159.684 6.77718 159.409 7.10303C159.133 7.42887 158.802 7.67773 158.415 7.84961C158.032 8.02148 157.602 8.10742 157.126 8.10742C156.664 8.10742 156.24 8.02148 155.853 7.84961C155.47 7.67773 155.137 7.42887 154.854 7.10303C154.575 6.77718 154.358 6.38151 154.204 5.91602C154.05 5.45052 153.973 4.92415 153.973 4.33691V3.84277C153.973 3.25553 154.048 2.73096 154.199 2.26904C154.353 1.80355 154.569 1.40788 154.849 1.08203C155.128 0.752604 155.459 0.501953 155.842 0.330078C156.229 0.158203 156.653 0.0722656 157.115 0.0722656C157.591 0.0722656 158.021 0.158203 158.404 0.330078C158.791 0.501953 159.122 0.752604 159.398 1.08203C159.677 1.40788 159.89 1.80355 160.037 2.26904C160.188 2.73096 160.263 3.25553 160.263 3.84277ZM159.237 4.33691V3.83203C159.237 3.36654 159.188 2.95475 159.092 2.59668C158.999 2.23861 158.861 1.93783 158.678 1.69434C158.496 1.45085 158.272 1.26644 158.007 1.14111C157.745 1.01579 157.448 0.953125 157.115 0.953125C156.793 0.953125 156.501 1.01579 156.24 1.14111C155.982 1.26644 155.76 1.45085 155.574 1.69434C155.391 1.93783 155.25 2.23861 155.149 2.59668C155.049 2.95475 154.999 3.36654 154.999 3.83203V4.33691C154.999 4.80599 155.049 5.22135 155.149 5.58301C155.25 5.94108 155.393 6.24365 155.579 6.49072C155.769 6.73421 155.993 6.91862 156.25 7.04395C156.512 7.16927 156.804 7.23193 157.126 7.23193C157.463 7.23193 157.762 7.16927 158.023 7.04395C158.284 6.91862 158.505 6.73421 158.684 6.49072C158.866 6.24365 159.004 5.94108 159.097 5.58301C159.19 5.22135 159.237 4.80599 159.237 4.33691ZM167.836 3.84277V4.33691C167.836 4.92415 167.763 5.45052 167.616 5.91602C167.469 6.38151 167.258 6.77718 166.982 7.10303C166.706 7.42887 166.375 7.67773 165.988 7.84961C165.605 8.02148 165.175 8.10742 164.699 8.10742C164.237 8.10742 163.813 8.02148 163.426 7.84961C163.043 7.67773 162.71 7.42887 162.427 7.10303C162.148 6.77718 161.931 6.38151 161.777 5.91602C161.623 5.45052 161.546 4.92415 161.546 4.33691V3.84277C161.546 3.25553 161.622 2.73096 161.772 2.26904C161.926 1.80355 162.143 1.40788 162.422 1.08203C162.701 0.752604 163.032 0.501953 163.416 0.330078C163.802 0.158203 164.227 0.0722656 164.688 0.0722656C165.165 0.0722656 165.594 0.158203 165.978 0.330078C166.364 0.501953 166.695 0.752604 166.971 1.08203C167.25 1.40788 167.464 1.80355 167.61 2.26904C167.761 2.73096 167.836 3.25553 167.836 3.84277ZM166.81 4.33691V3.83203C166.81 3.36654 166.762 2.95475 166.665 2.59668C166.572 2.23861 166.434 1.93783 166.251 1.69434C166.069 1.45085 165.845 1.26644 165.58 1.14111C165.319 1.01579 165.021 0.953125 164.688 0.953125C164.366 0.953125 164.074 1.01579 163.813 1.14111C163.555 1.26644 163.333 1.45085 163.147 1.69434C162.964 1.93783 162.823 2.23861 162.723 2.59668C162.622 2.95475 162.572 3.36654 162.572 3.83203V4.33691C162.572 4.80599 162.622 5.22135 162.723 5.58301C162.823 5.94108 162.966 6.24365 163.152 6.49072C163.342 6.73421 163.566 6.91862 163.824 7.04395C164.085 7.16927 164.377 7.23193 164.699 7.23193C165.036 7.23193 165.335 7.16927 165.596 7.04395C165.858 6.91862 166.078 6.73421 166.257 6.49072C166.439 6.24365 166.577 5.94108 166.67 5.58301C166.764 5.22135 166.81 4.80599 166.81 4.33691ZM170.425 0.179688V8H169.388V0.179688H170.425ZM175.146 0.179688L171.896 3.82666L170.07 5.72266L169.898 4.61621L171.273 3.10156L173.9 0.179688H175.146ZM174.147 8L171.252 4.18652L171.87 3.36475L175.382 8H174.147Z" fill="#C7C7C7"/>
</svg>
